<svg width="967" height="205" viewBox="0 0 967 205" fill="none" xmlns="http://www.w3.org/2000/svg">
<path d="M51.772 199.859C44.89 199.859 38.101 199.022 31.405 197.348C24.895 195.674 18.943 192.791 13.549 188.699C8.899 184.793 5.551 179.213 3.505 171.959C1.645 164.705 0.715 157.637 0.715 150.755C0.715 147.779 0.901001 144.989 1.273 142.385C1.645 139.595 2.017 137.27 2.389 135.41C5.551 121.646 11.317 108.812 19.687 96.908C28.243 84.818 39.124 72.728 52.33 60.638C53.818 59.15 55.306 57.755 56.794 56.453C58.282 55.151 59.77 53.849 61.258 52.547C62.188 51.989 63.118 51.71 64.048 51.71C64.978 51.524 65.815 51.431 66.559 51.431C67.489 51.431 68.326 51.431 69.07 51.431C69.814 51.245 70.372 50.966 70.744 50.594C71.674 50.036 72.232 48.734 72.418 46.688C72.79 44.642 73.534 43.154 74.65 42.224C80.044 38.318 86.368 35.063 93.622 32.459C100.876 29.855 107.572 27.344 113.71 24.926C118.918 22.88 125.242 21.299 132.682 20.183C140.308 19.067 147.655 18.509 154.723 18.509C161.977 18.509 167.929 19.067 172.579 20.183C176.671 21.113 179.368 22.601 180.67 24.647C182.158 26.507 183.088 28.553 183.46 30.785C183.832 33.017 184.297 35.156 184.855 37.202C185.041 37.76 185.134 38.318 185.134 38.876C185.32 39.434 185.413 40.085 185.413 40.829C185.413 43.805 184.483 46.409 182.623 48.641C180.949 50.873 179.182 51.989 177.322 51.989C175.276 51.989 173.788 50.594 172.858 47.804C172.486 46.874 171.835 45.665 170.905 44.177C170.161 42.689 169.603 41.387 169.231 40.271C168.301 38.225 166.906 36.923 165.046 36.365C163.186 35.621 160.768 35.249 157.792 35.249H157.513C155.839 35.249 153.979 35.063 151.933 34.691C149.887 34.319 147.655 34.133 145.237 34.133C141.703 34.133 137.89 34.505 133.798 35.249C129.706 35.993 125.335 37.388 120.685 39.434C106.363 45.758 92.599 52.733 79.393 60.359C66.373 67.799 55.492 76.448 46.75 86.306C45.634 87.794 44.89 88.817 44.518 89.375C44.332 89.933 43.588 91.049 42.286 92.723C41.356 93.839 39.961 95.42 38.101 97.466C36.241 99.512 34.939 101.093 34.195 102.209C31.405 106.115 29.266 110.393 27.778 115.043C26.29 119.507 25.081 123.878 24.151 128.156C23.221 132.434 22.105 135.968 20.803 138.758C19.687 141.176 18.85 143.687 18.292 146.291C17.92 148.709 17.734 151.22 17.734 153.824C17.734 158.288 18.292 162.566 19.408 166.658C20.71 170.75 22.105 174.191 23.593 176.981C26.569 182.375 31.126 186.002 37.264 187.862C43.588 189.536 49.912 190.373 56.236 190.373C60.7 190.373 64.792 190.094 68.512 189.536C72.418 188.978 75.208 188.606 76.882 188.42C78.184 188.048 80.509 187.118 83.857 185.63C87.205 183.956 89.53 183.026 90.832 182.84C92.506 182.468 94.552 182.003 96.97 181.445C99.388 180.887 101.527 180.236 103.387 179.492C112.501 176.144 119.848 172.238 125.428 167.774C131.194 163.31 136.867 158.567 142.447 153.545C147.283 149.267 151.189 146.291 154.165 144.617C157.327 142.757 159.559 141.827 160.861 141.827C162.163 141.827 162.814 142.385 162.814 143.501C162.814 144.617 161.977 146.198 160.303 148.244C158.815 150.29 156.49 152.336 153.328 154.382C146.26 159.404 139.099 165.077 131.845 171.401C124.591 177.725 116.593 182.654 107.851 186.188C105.433 187.118 103.201 188.327 101.155 189.815C99.109 191.303 96.784 192.419 94.18 193.163C91.204 193.907 85.717 195.209 77.719 197.069C69.721 198.929 61.072 199.859 51.772 199.859ZM188.04 201.254C187.482 201.254 186.273 200.882 184.413 200.138C182.553 199.58 180.6 199.022 178.554 198.464C176.508 197.906 175.02 197.627 174.09 197.627H173.811C170.277 197.627 167.58 196.232 165.72 193.442C164.046 190.466 162.93 187.769 162.372 185.351C162.186 184.421 162 183.491 161.814 182.561C161.814 181.445 161.814 180.329 161.814 179.213C161.814 173.075 163.302 166.1 166.278 158.288C169.254 150.476 173.253 142.385 178.275 134.015C183.483 125.645 189.342 117.833 195.852 110.579C202.548 102.953 209.337 97.001 216.219 92.723C223.101 88.445 229.332 86.027 234.912 85.469C237.888 85.469 240.957 86.306 244.119 87.98C247.281 89.654 249.513 90.491 250.815 90.491H251.094C255 90.491 257.604 92.072 258.906 95.234C260.208 98.396 260.859 101.558 260.859 104.72C260.859 106.58 260.487 108.533 259.743 110.579C258.999 112.625 258.348 114.299 257.79 115.601C257.418 116.903 257.418 117.368 257.79 116.996L258.069 116.717C256.023 120.437 253.698 124.25 251.094 128.156C248.676 131.876 244.677 136.805 239.097 142.943C236.865 145.361 233.796 147.779 229.89 150.197C226.17 152.429 222.543 154.475 219.009 156.335C215.475 158.195 212.964 159.497 211.476 160.241C209.988 160.985 208.035 161.357 205.617 161.357C203.199 161.357 200.502 161.078 197.526 160.52C194.736 159.962 192.318 159.683 190.272 159.683C189.156 159.683 188.133 159.776 187.203 159.962C186.273 160.148 185.622 160.706 185.25 161.636C182.274 166.472 180.786 171.308 180.786 176.144C180.786 179.12 181.437 181.631 182.739 183.677C184.227 185.537 186.645 186.467 189.993 186.467C191.109 186.467 192.318 186.374 193.62 186.188C194.922 186.002 196.224 185.63 197.526 185.072C200.688 184.514 202.92 184.235 204.222 184.235C205.524 184.235 206.919 184.049 208.407 183.677C210.081 183.305 212.778 182.375 216.498 180.887C220.59 179.213 223.659 178.004 225.705 177.26C227.937 176.516 229.611 175.865 230.727 175.307C232.029 174.749 233.331 174.098 234.633 173.354C235.935 172.61 237.981 171.494 240.771 170.006C242.817 168.89 243.933 168.332 244.119 168.332C244.491 168.332 245.049 168.146 245.793 167.774C246.537 167.216 248.49 165.914 251.652 163.868C255 161.636 257.604 160.52 259.464 160.52C260.766 160.52 261.417 160.985 261.417 161.915C261.417 162.659 260.766 163.775 259.464 165.263C258.348 166.751 256.302 168.518 253.326 170.564C250.164 172.796 246.537 175.4 242.445 178.376C238.539 181.352 234.912 183.677 231.564 185.351C230.448 185.537 229.425 186.002 228.495 186.746C227.751 187.304 226.635 187.769 225.147 188.141L209.523 194.837L209.802 194.558C210.36 194 209.709 194 207.849 194.558C206.175 195.116 203.943 195.953 201.153 197.069C198.549 198.185 195.945 199.115 193.341 199.859C190.923 200.789 189.156 201.254 188.04 201.254ZM198.921 153.266C199.665 153.266 200.409 153.266 201.153 153.266C201.897 153.08 202.641 152.894 203.385 152.708C204.687 151.592 205.896 150.755 207.012 150.197C208.128 149.639 209.616 148.709 211.476 147.407C213.336 146.105 215.94 143.78 219.288 140.432C222.078 137.642 224.496 135.689 226.542 134.573C228.588 133.271 230.262 131.876 231.564 130.388C235.47 124.994 237.516 120.902 237.702 118.112C238.074 115.322 238.26 112.718 238.26 110.3C236.028 107.324 233.982 105.836 232.122 105.836C231.006 105.836 229.332 106.301 227.1 107.231C223.938 108.533 221.334 109.742 219.288 110.858C217.428 111.974 214.638 114.392 210.918 118.112C206.64 122.576 202.734 126.947 199.2 131.225C195.666 135.317 192.876 139.502 190.83 143.78C190.644 144.524 190.365 145.268 189.993 146.012C189.807 146.57 189.714 147.035 189.714 147.407C189.714 149.453 190.644 150.941 192.504 151.871C194.364 152.801 196.503 153.266 198.921 153.266ZM272.991 194C271.317 193.628 270.48 191.675 270.48 188.141C270.48 182.003 272.247 175.4 275.781 168.332C276.897 167.03 277.827 165.728 278.571 164.426C279.501 163.124 279.966 161.636 279.966 159.962C279.966 158.846 280.524 157.172 281.64 154.94C282.756 152.522 283.965 150.011 285.267 147.407C286.755 144.617 288.057 142.199 289.173 140.153C290.289 138.107 290.847 136.898 290.847 136.526C291.219 135.596 291.591 134.573 291.963 133.457C292.521 132.155 292.8 131.504 292.8 131.504C294.66 128.714 296.892 125.273 299.496 121.181C302.286 117.089 305.541 112.346 309.261 106.952H308.982C311.586 102.674 313.911 99.047 315.957 96.071C318.189 92.909 320.235 90.398 322.095 88.538C328.047 82.586 334.836 79.61 342.462 79.61C347.112 79.61 349.437 81.656 349.437 85.748C349.437 89.282 347.298 92.909 343.02 96.629C341.346 98.117 339.579 99.605 337.719 101.093C336.045 102.395 334.464 103.79 332.976 105.278C331.488 106.952 329.442 109.463 326.838 112.811C324.234 115.973 321.165 119.972 317.631 124.808C317.259 125.366 316.236 126.761 314.562 128.993C313.074 131.039 311.493 133.364 309.819 135.968C308.331 138.386 307.215 140.525 306.471 142.385C305.913 144.059 306.285 144.803 307.587 144.617C310.191 140.897 316.608 135.41 326.838 128.156C331.116 125.18 334.65 122.204 337.44 119.228C340.23 116.252 343.02 113.834 345.81 111.974C346.74 111.602 347.763 111.044 348.879 110.3C349.995 109.556 351.204 108.533 352.506 107.231H352.785C357.807 104.627 363.201 101.744 368.967 98.582C374.733 95.234 380.778 91.514 387.102 87.422C387.66 87.05 388.404 87.05 389.334 87.422C397.704 84.446 403.47 82.958 406.632 82.958C409.794 82.958 411.375 84.353 411.375 87.143C411.375 87.701 411.096 89.096 410.538 91.328C410.166 93.56 409.329 95.699 408.027 97.745C406.911 99.791 405.237 100.814 403.005 100.814H390.729C384.591 103.232 377.988 105.836 370.92 108.626C364.038 111.23 356.877 115.229 349.437 120.623H349.158C321.816 138.665 301.356 157.73 287.778 177.818C287.592 178.748 287.22 179.864 286.662 181.166C286.104 182.468 285.453 184.049 284.709 185.909C281.919 190.745 278.013 193.442 272.991 194ZM404.969 193.721C401.993 193.721 399.668 193.256 397.994 192.326C396.32 191.21 394.739 190.094 393.251 188.978C389.903 186.188 388.229 181.073 388.229 173.633C388.229 168.239 389.252 162.101 391.298 155.219C393.344 148.151 396.692 140.804 401.342 133.178V133.457C403.388 129.737 405.434 126.017 407.48 122.297C409.712 118.577 412.037 114.95 414.455 111.416C415.199 110.672 415.943 110.207 416.687 110.021C417.431 109.649 417.989 109.277 418.361 108.905C418.361 108.161 418.547 107.138 418.919 105.836C419.477 104.348 420.128 103.325 420.872 102.767C424.22 98.303 428.033 94.955 432.311 92.723C436.589 90.491 439.937 88.631 442.355 87.143H442.076C443.192 86.585 444.494 86.306 445.982 86.306C449.702 86.306 454.073 87.701 459.095 90.491C459.839 90.491 460.583 90.398 461.327 90.212C462.257 89.84 463.187 89.654 464.117 89.654C465.977 89.654 467.837 90.305 469.697 91.607C471.743 92.909 472.58 94.955 472.208 97.745C472.022 98.303 471.929 98.768 471.929 99.14C471.929 99.512 471.929 99.884 471.929 100.256C471.929 102.302 472.673 103.325 474.161 103.325C474.905 103.325 475.649 103.232 476.393 103.046C477.137 102.86 477.881 102.767 478.625 102.767C480.671 102.767 483.554 102.488 487.274 101.93C490.994 101.186 494.528 100.535 497.876 99.977C501.41 99.233 503.828 98.861 505.13 98.861C505.874 99.419 506.246 100.07 506.246 100.814C506.246 101.558 505.874 102.395 505.13 103.325C504.572 104.255 503.921 104.906 503.177 105.278C503.177 105.278 501.968 105.65 499.55 106.394C497.318 106.952 494.528 107.696 491.18 108.626C487.832 109.556 484.484 110.486 481.136 111.416C477.974 112.16 475.463 112.625 473.603 112.811L470.813 113.09C470.627 115.322 470.069 117.74 469.139 120.344C468.209 122.948 467.186 125.831 466.07 128.993C465.698 129.923 465.419 131.132 465.233 132.62C465.047 133.922 464.675 135.317 464.117 136.805C462.815 139.037 461.327 141.269 459.653 143.501C457.979 145.733 456.398 148.058 454.91 150.476C453.794 152.336 452.585 154.382 451.283 156.614C450.167 158.66 448.772 160.799 447.098 163.031C443.378 167.867 439.007 172.703 433.985 177.539C429.149 182.189 424.127 186.095 418.919 189.257C413.897 192.233 409.247 193.721 404.969 193.721ZM407.48 184.514C411.2 184.514 416.315 181.91 422.825 176.702C429.521 171.308 435.752 164.426 441.518 156.056H441.239C442.727 153.824 444.215 151.22 445.703 148.244C447.377 145.268 448.679 142.757 449.609 140.711C449.609 140.711 450.074 140.153 451.004 139.037C452.12 137.921 453.236 136.712 454.352 135.41C455.468 133.922 456.119 132.806 456.305 132.062C456.491 131.69 456.584 131.225 456.584 130.667C456.584 130.295 456.491 130.016 456.305 129.83C456.305 129.458 456.305 128.9 456.305 128.156V127.877C457.421 125.087 458.351 122.576 459.095 120.344C459.839 118.112 460.304 116.159 460.49 114.485C459.188 114.485 457.142 114.392 454.352 114.206C451.562 114.02 449.237 113.834 447.377 113.648C445.703 113.462 445.703 113.369 447.377 113.369H448.214C448.214 113.183 447.377 112.811 445.703 112.253C444.029 111.695 442.727 111.23 441.797 110.858C441.239 111.044 440.681 111.137 440.123 111.137C439.193 111.137 438.449 110.951 437.891 110.579C437.519 110.207 437.054 110.3 436.496 110.858C435.752 111.602 435.287 112.532 435.101 113.648C434.915 114.764 434.171 115.973 432.869 117.275L432.59 117.554C432.59 117.368 432.125 117.554 431.195 118.112C430.265 118.67 429.893 118.949 430.079 118.949L429.8 119.507C429.428 119.693 429.149 120.251 428.963 121.181C428.963 121.925 428.684 122.762 428.126 123.692C426.266 126.668 424.22 129.83 421.988 133.178C419.942 136.34 417.989 139.409 416.129 142.385V142.106C414.269 145.454 412.409 149.081 410.549 152.987C408.689 156.893 407.294 160.706 406.364 164.426C406.364 165.356 406.178 166.286 405.806 167.216C405.62 167.96 405.527 168.611 405.527 169.169V169.448C405.527 171.494 405.155 173.261 404.411 174.749C403.667 176.237 403.295 177.725 403.295 179.213C403.853 180.515 404.039 181.538 403.853 182.282C403.667 182.84 403.946 183.305 404.69 183.677C405.62 184.235 406.55 184.514 407.48 184.514ZM483.324 194.558C482.022 194.558 481.185 194 480.813 192.884C480.441 191.768 480.162 190.559 479.976 189.257C479.604 187.769 479.418 186.095 479.418 184.235C479.418 182.933 479.604 181.631 479.976 180.329C480.348 179.027 481.092 178.004 482.208 177.26C485.184 175.586 487.695 174.191 489.741 173.075C491.787 171.773 493.74 170.657 495.6 169.727C499.692 167.681 502.947 166.658 505.365 166.658C506.481 166.658 507.411 167.309 508.155 168.611C508.899 169.727 509.271 169.913 509.271 169.169V168.89C509.271 168.518 509.271 168.797 509.271 169.727C509.457 170.657 509.55 171.401 509.55 171.959C509.55 173.819 509.178 175.586 508.434 177.26C507.876 178.748 507.039 180.422 505.923 182.282C504.993 184.142 504.435 186.188 504.249 188.42C503.877 190.838 502.389 192.14 499.785 192.326C497.181 192.326 495.135 192.791 493.647 193.721C492.345 194.279 490.578 194.558 488.346 194.558C486.114 194.558 484.533 194.558 483.603 194.558H483.324ZM575.675 204.881C573.629 204.881 572.048 204.323 570.932 203.207C569.63 201.905 568.7 199.766 568.142 196.79C567.584 193.814 567.305 190.931 567.305 188.141C567.305 186.467 567.398 184.979 567.584 183.677C567.77 182.189 567.956 181.073 568.142 180.329C569.63 174.377 570.746 170.006 571.49 167.216C572.234 164.426 572.699 162.566 572.885 161.636C573.257 160.706 573.443 160.148 573.443 159.962C573.443 159.59 573.443 158.939 573.443 158.009C573.443 157.451 573.443 156.707 573.443 155.777C573.443 154.847 573.536 153.638 573.722 152.15C573.908 150.104 574.559 147.221 575.675 143.501C576.977 139.781 578.186 136.061 579.302 132.341C580.604 128.621 581.255 125.924 581.255 124.25V123.971L592.973 90.491C593.903 86.213 595.391 81.656 597.437 76.82C599.669 71.984 600.785 66.683 600.785 60.917C600.785 58.313 600.599 56.174 600.227 54.5C599.855 52.826 599.39 50.78 598.832 48.362C598.646 46.688 598.181 45.2 597.437 43.898C596.879 42.596 596.6 41.108 596.6 39.434C596.6 38.504 596.693 37.76 596.879 37.202C597.809 34.598 599.39 32.738 601.622 31.622C603.854 30.32 606.272 29.669 608.876 29.669C609.434 29.669 609.992 29.669 610.55 29.669C611.294 29.669 611.945 29.762 612.503 29.948C614.549 30.32 615.944 31.343 616.688 33.017C617.618 34.505 618.92 35.621 620.594 36.365C622.268 37.109 623.105 40.178 623.105 45.572C623.105 49.478 622.733 53.942 621.989 58.964C621.245 63.986 620.222 69.101 618.92 74.309C617.804 79.331 616.502 83.888 615.014 87.98C613.712 92.072 612.41 95.048 611.108 96.908C605.528 104.906 601.157 113.555 597.995 122.855C594.833 131.969 592.322 140.99 590.462 149.918C588.602 158.846 586.742 167.216 584.882 175.028C584.324 177.818 584.045 179.492 584.045 180.05C584.045 180.794 584.138 181.352 584.324 181.724C584.696 181.91 584.975 182.375 585.161 183.119C585.161 183.491 585.533 184.421 586.277 185.909C587.207 187.397 587.765 188.327 587.951 188.699C596.321 180.515 603.854 172.61 610.55 164.984C617.246 157.172 623.756 149.453 630.08 141.827C636.59 134.015 643.565 126.017 651.005 117.833C658.445 109.463 667.001 100.721 676.673 91.607C677.603 90.677 679.184 89.375 681.416 87.701C683.648 86.027 685.229 84.725 686.159 83.795C686.531 83.423 686.996 82.679 687.554 81.563C688.298 80.447 689.042 79.61 689.786 79.052C703.922 66.218 716.756 55.523 728.288 46.967C740.006 38.411 750.329 31.25 759.257 25.484C768.371 19.532 776.09 14.417 782.414 10.139C786.506 7.34899 790.691 5.11699 794.969 3.44299C799.247 1.58299 802.595 0.652995 805.013 0.652995C807.059 0.652995 808.082 1.30399 808.082 2.60599C808.082 3.53599 807.431 4.93099 806.129 6.791C805.199 7.53499 803.525 8.65099 801.107 10.139C798.875 11.627 796.55 13.115 794.132 14.603C791.9 15.905 790.412 17.021 789.668 17.951C788.924 18.881 787.343 19.997 784.925 21.299C782.693 22.415 780.368 23.531 777.95 24.647C775.718 25.763 774.23 26.6 773.486 27.158C769.952 30.134 764.93 33.947 758.42 38.597C752.096 43.061 745.214 47.897 737.774 53.105C730.334 58.313 723.173 63.521 716.291 68.729C709.595 73.751 704.108 78.401 699.83 82.679C687.554 94.583 677.324 104.999 669.14 113.927C660.956 122.669 654.074 130.295 648.494 136.805C643.1 143.129 638.357 148.709 634.265 153.545C630.359 158.195 626.453 162.473 622.547 166.379C618.827 170.285 614.549 174.098 609.713 177.818C608.969 178.376 607.667 179.957 605.807 182.561C603.947 185.165 602.087 187.862 600.227 190.652C598.367 193.256 596.972 194.93 596.042 195.674V195.395C594.74 196.325 593.066 197.441 591.02 198.743C589.16 200.045 587.393 201.161 585.719 202.091C584.975 202.463 583.58 203.021 581.534 203.765C579.674 204.509 577.721 204.881 575.675 204.881ZM746.903 75.146C745.229 75.146 744.113 74.588 743.555 73.472C743.183 72.17 742.904 70.961 742.718 69.845C742.532 68.915 742.346 67.892 742.16 66.776C741.974 65.66 741.881 64.544 741.881 63.428C741.881 61.94 742.067 60.638 742.439 59.522C742.997 58.22 743.927 57.197 745.229 56.453C749.507 54.221 753.134 52.64 756.11 51.71C759.086 50.78 761.504 50.315 763.364 50.315C766.154 50.315 768.014 51.152 768.944 52.826C769.874 54.5 770.339 56.639 770.339 59.243C770.339 59.987 770.339 60.731 770.339 61.475C770.339 62.033 770.246 62.777 770.06 63.707C769.502 66.125 767.642 67.799 764.48 68.729C761.504 69.659 758.993 70.589 756.947 71.519C755.645 72.263 754.064 73.1 752.204 74.03C750.53 74.774 748.949 75.146 747.461 75.146H746.903ZM686.081 195.395C685.337 195.395 684.686 194.837 684.128 193.721C683.756 192.233 683.291 190.931 682.733 189.815C682.175 188.699 681.896 187.025 681.896 184.793C681.896 182.189 682.454 178.376 683.57 173.354C684.686 168.332 686.825 160.799 689.987 150.755C692.405 143.129 694.637 136.991 696.683 132.341C698.729 127.691 700.868 123.227 703.1 118.949V118.67C703.658 117.926 704.495 117.275 705.611 116.717C706.727 116.159 707.471 115.601 707.843 115.043H707.564C707.936 114.671 708.029 114.113 707.843 113.369C707.657 112.439 707.564 111.602 707.564 110.858C707.564 108.812 708.215 107.138 709.517 105.836C711.005 104.348 712.493 102.953 713.981 101.651C715.469 100.163 717.794 98.489 720.956 96.629C724.118 94.769 727.838 93.467 732.116 92.723C732.674 92.537 733.232 92.444 733.79 92.444C734.348 92.444 734.906 92.444 735.464 92.444C738.626 92.444 741.044 93.095 742.718 94.397C744.392 95.699 745.601 97.094 746.345 98.582C746.717 98.954 747.089 99.419 747.461 99.977C747.833 100.535 748.019 101.186 748.019 101.93C748.019 102.674 747.647 103.697 746.903 104.999C746.345 106.115 745.043 107.603 742.997 109.463C742.067 110.579 740.672 111.788 738.812 113.09C737.138 114.206 735.557 115.508 734.069 116.996C732.209 118.856 730.442 120.902 728.768 123.134C727.094 125.366 725.513 127.505 724.025 129.551C722.723 131.411 721.328 133.178 719.84 134.852C718.352 136.34 716.864 137.921 715.376 139.595C714.632 140.339 714.074 141.734 713.702 143.78C713.33 145.64 712.493 147.221 711.191 148.523C709.889 150.197 708.401 151.499 706.727 152.429C705.239 153.359 704.03 154.661 703.1 156.335V156.056C702.17 157.73 701.147 159.683 700.031 161.915C698.915 164.147 697.799 166.286 696.683 168.332C694.823 172.052 693.614 174.842 693.056 176.702C692.498 178.376 692.219 179.678 692.219 180.608C692.219 181.724 692.405 182.468 692.777 182.84C693.335 183.212 693.428 184.142 693.056 185.63C692.312 187.304 691.289 189.35 689.987 191.768C688.871 194.186 687.569 195.395 686.081 195.395ZM742.792 192.326C742.048 192.326 741.676 191.675 741.676 190.373C741.676 189.257 741.862 188.048 742.234 186.746C742.606 185.444 742.606 184.979 742.234 185.351C741.676 184.979 741.397 184.049 741.397 182.561C741.397 180.515 741.769 178.004 742.513 175.028C743.443 172.052 744.28 169.262 745.024 166.658C745.954 164.054 746.419 162.566 746.419 162.194C746.791 161.45 746.791 160.985 746.419 160.799C746.047 160.613 746.14 159.869 746.698 158.567C748.744 154.289 750.139 150.383 750.883 146.849C751.627 143.129 752.836 139.781 754.51 136.805V136.526C754.882 136.154 755.068 135.503 755.068 134.573C755.254 133.457 755.719 132.341 756.463 131.225V131.504C756.649 131.132 756.742 130.202 756.742 128.714C756.742 127.226 756.742 126.203 756.742 125.645C757.486 123.971 757.951 122.948 758.137 122.576C758.323 122.204 758.416 121.646 758.416 120.902C758.416 118.298 758.416 116.531 758.416 115.601C758.416 114.671 758.509 113.276 758.695 111.416V111.137C759.253 109.091 760.555 106.673 762.601 103.883C764.647 100.907 766.972 98.396 769.576 96.35C772.18 94.118 774.691 93.002 777.109 93.002C779.155 93.002 781.015 94.118 782.689 96.35C783.619 98.582 784.084 100.163 784.084 101.093C784.084 103.511 783.247 105.836 781.573 108.068C779.899 110.3 778.411 113.834 777.109 118.67C775.993 122.762 774.505 127.319 772.645 132.341C770.971 137.177 769.297 141.734 767.623 146.012C765.949 150.29 764.833 153.638 764.275 156.056C763.903 158.474 764.461 159.218 765.949 158.288C765.949 158.288 766.693 157.916 768.181 157.172C769.669 156.242 771.25 155.312 772.924 154.382C774.598 153.266 775.621 152.522 775.993 152.15C780.271 148.616 785.572 143.873 791.896 137.921C798.406 131.969 805.567 126.575 813.379 121.739C813.937 121.367 815.239 120.53 817.285 119.228C819.331 117.926 820.726 117.089 821.47 116.717C822.028 116.531 823.144 115.601 824.818 113.927C826.492 112.067 828.166 110.3 829.84 108.626C831.7 106.766 832.909 105.743 833.467 105.557C835.699 104.627 837.466 103.883 838.768 103.325C840.07 102.581 841.465 101.651 842.953 100.535C844.441 99.419 846.58 97.838 849.37 95.792L852.439 92.444C853.183 92.072 853.741 91.979 854.113 92.165C854.671 92.165 854.95 92.072 854.95 91.886C857.74 88.538 860.53 85.934 863.32 84.074C866.11 82.028 868.714 81.005 871.132 81.005C872.248 81.005 873.364 81.284 874.48 81.842L874.759 82.4C874.759 82.4 874.666 83.237 874.48 84.911C874.294 86.585 873.364 88.724 871.69 91.328C870.202 93.932 867.319 96.722 863.041 99.698C860.623 101.372 857.089 103.976 852.439 107.51C847.975 111.044 841.93 115.043 834.304 119.507C832.816 120.251 831.235 121.181 829.561 122.297C828.073 123.227 826.585 124.157 825.097 125.087H824.818C823.33 125.831 821.563 127.226 819.517 129.272C817.471 131.318 815.611 132.992 813.937 134.294C812.821 135.038 811.612 135.968 810.31 137.084C809.194 138.2 808.078 139.223 806.962 140.153C797.848 146.477 789.199 152.987 781.015 159.683C772.831 166.193 765.856 173.54 760.09 181.724C759.346 182.84 758.23 184.235 756.742 185.909C755.254 187.583 754.324 188.885 753.952 189.815C753.022 191.117 751.162 191.675 748.372 191.489C745.768 191.303 744.373 191.396 744.187 191.768C743.443 192.14 742.978 192.326 742.792 192.326ZM864.883 193.721C861.907 193.721 859.582 193.256 857.908 192.326C856.234 191.21 854.653 190.094 853.165 188.978C849.817 186.188 848.143 181.073 848.143 173.633C848.143 168.239 849.166 162.101 851.212 155.219C853.258 148.151 856.606 140.804 861.256 133.178V133.457C863.302 129.737 865.348 126.017 867.394 122.297C869.626 118.577 871.951 114.95 874.369 111.416C875.113 110.672 875.857 110.207 876.601 110.021C877.345 109.649 877.903 109.277 878.275 108.905C878.275 108.161 878.461 107.138 878.833 105.836C879.391 104.348 880.042 103.325 880.786 102.767C884.134 98.303 887.947 94.955 892.225 92.723C896.503 90.491 899.851 88.631 902.269 87.143H901.99C903.106 86.585 904.408 86.306 905.896 86.306C909.616 86.306 913.987 87.701 919.009 90.491C919.753 90.491 920.497 90.398 921.241 90.212C922.171 89.84 923.101 89.654 924.031 89.654C925.891 89.654 927.751 90.305 929.611 91.607C931.657 92.909 932.494 94.955 932.122 97.745C931.936 98.303 931.843 98.768 931.843 99.14C931.843 99.512 931.843 99.884 931.843 100.256C931.843 102.302 932.587 103.325 934.075 103.325C934.819 103.325 935.563 103.232 936.307 103.046C937.051 102.86 937.795 102.767 938.539 102.767C940.585 102.767 943.468 102.488 947.188 101.93C950.908 101.186 954.442 100.535 957.79 99.977C961.324 99.233 963.742 98.861 965.044 98.861C965.788 99.419 966.16 100.07 966.16 100.814C966.16 101.558 965.788 102.395 965.044 103.325C964.486 104.255 963.835 104.906 963.091 105.278C963.091 105.278 961.882 105.65 959.464 106.394C957.232 106.952 954.442 107.696 951.094 108.626C947.746 109.556 944.398 110.486 941.05 111.416C937.888 112.16 935.377 112.625 933.517 112.811L930.727 113.09C930.541 115.322 929.983 117.74 929.053 120.344C928.123 122.948 927.1 125.831 925.984 128.993C925.612 129.923 925.333 131.132 925.147 132.62C924.961 133.922 924.589 135.317 924.031 136.805C922.729 139.037 921.241 141.269 919.567 143.501C917.893 145.733 916.312 148.058 914.824 150.476C913.708 152.336 912.499 154.382 911.197 156.614C910.081 158.66 908.686 160.799 907.012 163.031C903.292 167.867 898.921 172.703 893.899 177.539C889.063 182.189 884.041 186.095 878.833 189.257C873.811 192.233 869.161 193.721 864.883 193.721ZM867.394 184.514C871.114 184.514 876.229 181.91 882.739 176.702C889.435 171.308 895.666 164.426 901.432 156.056H901.153C902.641 153.824 904.129 151.22 905.617 148.244C907.291 145.268 908.593 142.757 909.523 140.711C909.523 140.711 909.988 140.153 910.918 139.037C912.034 137.921 913.15 136.712 914.266 135.41C915.382 133.922 916.033 132.806 916.219 132.062C916.405 131.69 916.498 131.225 916.498 130.667C916.498 130.295 916.405 130.016 916.219 129.83C916.219 129.458 916.219 128.9 916.219 128.156V127.877C917.335 125.087 918.265 122.576 919.009 120.344C919.753 118.112 920.218 116.159 920.404 114.485C919.102 114.485 917.056 114.392 914.266 114.206C911.476 114.02 909.151 113.834 907.291 113.648C905.617 113.462 905.617 113.369 907.291 113.369H908.128C908.128 113.183 907.291 112.811 905.617 112.253C903.943 111.695 902.641 111.23 901.711 110.858C901.153 111.044 900.595 111.137 900.037 111.137C899.107 111.137 898.363 110.951 897.805 110.579C897.433 110.207 896.968 110.3 896.41 110.858C895.666 111.602 895.201 112.532 895.015 113.648C894.829 114.764 894.085 115.973 892.783 117.275L892.504 117.554C892.504 117.368 892.039 117.554 891.109 118.112C890.179 118.67 889.807 118.949 889.993 118.949L889.714 119.507C889.342 119.693 889.063 120.251 888.877 121.181C888.877 121.925 888.598 122.762 888.04 123.692C886.18 126.668 884.134 129.83 881.902 133.178C879.856 136.34 877.903 139.409 876.043 142.385V142.106C874.183 145.454 872.323 149.081 870.463 152.987C868.603 156.893 867.208 160.706 866.278 164.426C866.278 165.356 866.092 166.286 865.72 167.216C865.534 167.96 865.441 168.611 865.441 169.169V169.448C865.441 171.494 865.069 173.261 864.325 174.749C863.581 176.237 863.209 177.725 863.209 179.213C863.767 180.515 863.953 181.538 863.767 182.282C863.581 182.84 863.86 183.305 864.604 183.677C865.534 184.235 866.464 184.514 867.394 184.514Z" fill="black"/>
</svg>
